<svg width="173" height="42" viewBox="0 0 173 42" fill="none" xmlns="http://www.w3.org/2000/svg">
<g clip-path="url(#clip0_64_2)">
<path d="M9.88162 7.80889e-05C17.4388 -0.0552475 21.9691 7.02247 18.9662 14.5467C16.8183 19.9212 13.4574 24.7109 10.6612 29.7731C10.1879 30.6307 9.71854 30.6228 9.28897 29.7731C6.39337 24.1141 2.41989 19.0004 0.470928 12.8593C0.00136186 11.3846 -0.113145 9.82094 0.13664 8.29423C0.386425 6.76752 0.993525 5.32041 1.90905 4.06939C2.82457 2.81838 4.02294 1.79843 5.40768 1.09163C6.79243 0.384835 8.32487 0.0109467 9.88162 7.80889e-05Z" fill="#F6C535"/>
<path d="M155.476 7.3662C157.707 6.7181 159.083 7.27134 159.708 9.50017C160.038 10.6857 160.706 11.7646 161.342 13.1675C161.939 11.8555 162.575 10.7964 162.886 9.68196C163.51 7.42152 164.874 6.65091 167.225 7.35433C166.004 10.2945 164.815 13.2821 163.53 16.1946C163.329 16.5996 163.224 17.0451 163.224 17.4967C163.224 17.9483 163.329 18.3938 163.53 18.7988C164.934 21.9603 166.255 25.1652 167.623 28.3938C164.357 28.7297 164.357 28.7298 163.144 25.9872C162.587 24.7305 162.015 23.4778 161.346 21.9919C160.694 23.4304 159.97 24.6317 159.596 25.9437C158.932 28.2635 157.608 29.1763 155.09 28.3464C156.335 25.3865 157.532 22.3476 158.896 19.3876C159.489 18.0954 159.576 17.0165 158.956 15.7045C157.691 12.9699 156.629 10.1562 155.476 7.3662Z" fill="white"/>
<path d="M133.75 19.5101C133.75 22.0156 133.651 24.521 133.786 27.0186C133.862 28.4333 133.277 28.5677 132.096 28.5993C130.823 28.5993 130.23 28.4491 130.262 26.9356C130.369 21.9997 130.262 17.056 130.334 12.1202C130.358 10.7924 130.083 10.1443 128.631 10.3695C128.114 10.4525 127.561 10.3102 127.04 10.3972C125.608 10.6303 125.338 10.002 125.302 8.68211C125.266 7.21203 125.911 7.14484 127.048 7.1646C130.429 7.21992 133.81 7.25944 137.187 7.1646C138.583 7.11717 138.778 7.63487 138.778 8.84808C138.778 9.99411 138.583 10.4288 137.278 10.4288C133.73 10.4051 133.73 10.4802 133.73 14.0052L133.75 19.5101Z" fill="white"/>
<path d="M108.986 19.5735C108.986 17.0048 108.919 14.4361 109.014 11.8714C109.062 10.6186 108.616 10.2077 107.423 10.3539C106.902 10.4171 106.365 10.3539 105.832 10.3539C104.718 10.4171 103.883 10.5041 103.871 8.82453C103.859 7.145 104.647 7.12129 105.896 7.14105C109.209 7.19242 112.522 7.22799 115.839 7.14105C117.168 7.09758 117.367 7.61131 117.319 8.72178C117.275 9.72159 117.347 10.4013 115.911 10.3973C112.284 10.3973 112.284 10.4764 112.284 14.0923C112.284 18.4393 112.188 22.7863 112.331 27.1333C112.387 28.7931 111.48 28.4691 110.506 28.556C109.312 28.6627 108.891 28.3505 108.95 27.0701C109.09 24.5765 108.986 22.075 108.986 19.5735Z" fill="white"/>
<path d="M48.9406 7.15288C51.3271 7.15288 53.4192 7.77728 54.5091 9.96264C55.0894 11.0444 55.3592 12.2639 55.2891 13.4877C55.2189 14.7116 54.8115 15.8927 54.1113 16.902C53.63 17.6173 53.2721 18.0204 54.0835 18.7989C55.0699 19.7474 55.2409 21.1226 55.3523 22.4464C55.5267 23.8153 55.6263 25.1926 55.6506 26.5722C55.6506 27.244 56.633 28.4927 54.8114 28.5481C53.4312 28.6034 52.397 28.6034 52.4845 26.7184C52.4925 25.2087 52.3674 23.7013 52.1107 22.2133C51.872 20.3915 50.8418 19.3443 48.9287 19.447C47.7354 19.5182 47.0195 19.447 47.0354 17.8663C47.0513 16.2856 47.8309 16.416 48.8849 16.3883C51.0924 16.329 52.1107 15.2897 52.0669 13.2703C52.0271 11.3813 50.9691 10.2511 48.8849 10.3262C47.3417 10.3855 47.0831 9.86384 47.0394 8.44513C46.9797 6.67867 48.1411 7.28329 48.9406 7.15288Z" fill="white"/>
<path d="M95.8995 7.15665C98.2104 7.15665 100.326 7.76523 101.412 9.92293C102.606 12.294 102.53 14.8153 100.943 17.0362C100.386 17.8266 100.406 18.1032 101.007 18.7513C101.886 19.6998 102.14 20.9604 102.267 22.2131C102.431 23.7938 102.59 25.3509 102.633 26.9237C102.633 27.5323 103.29 28.6941 101.786 28.5281C100.851 28.4293 99.4236 29.2157 99.4713 27.1845C99.4576 25.6092 99.3246 24.0373 99.0736 22.4818C98.7752 20.2332 97.9758 19.5338 95.7046 19.4666C94.7819 19.4389 93.9347 19.6602 93.9625 18.1427C93.9904 16.7556 94.3841 16.3763 95.7444 16.3763C98.0673 16.3763 98.9622 15.416 98.9264 13.3373C98.8946 11.3614 97.944 10.2905 95.8399 10.3497C94.3483 10.3892 93.9983 9.95455 93.9585 8.50028C93.9108 6.73776 95.0086 7.25149 95.8995 7.15665Z" fill="white"/>
<path d="M34.4316 28.3938C32.4627 28.7139 30.6649 29.0419 30.6172 26.2835C30.6172 25.5643 30.0961 25.3311 29.3802 25.3746C28.4614 25.426 27.5347 25.3746 26.4647 25.3746C26.7909 23.6002 26.4647 21.5137 29.5313 22.2408C28.9586 19.5852 28.4375 17.1034 27.8966 14.6493C27.3557 12.1952 26.8028 9.78068 26.2539 7.3424C29.4359 6.8998 29.4558 6.89585 30.12 9.76487C31.5598 15.9666 32.997 22.1762 34.4316 28.3938Z" fill="white"/>
<path d="M145.829 25.3864C145.933 23.4105 146.008 21.5571 148.836 22.225C147.838 17.6922 146.848 13.3492 145.961 8.99033C145.849 8.44893 144.827 7.35031 146.319 7.2278C147.377 7.14482 148.773 6.52439 149.19 8.52401C150.3 13.8629 151.601 19.1584 152.826 24.4736C152.973 25.1138 153.251 25.7579 153.223 26.3902C153.192 27.1055 154.46 28.0105 153.12 28.5163C151.529 29.1091 150.296 28.4728 150.101 26.979C149.922 25.5999 149.262 25.2284 147.997 25.3983C147.275 25.4359 146.551 25.4319 145.829 25.3864Z" fill="white"/>
<path d="M72.4956 17.4631C72.4956 15.9535 72.4439 14.436 72.4956 12.9264C72.615 10.1996 74.5679 7.78901 77.1413 7.21995C77.6465 7.1093 78.6249 6.477 78.7323 7.48867C78.8278 8.40154 79.4681 9.8163 78.2391 10.2826C76.1947 11.073 75.8805 12.5114 75.9123 14.3451C75.9521 16.7794 75.9759 19.2137 75.9123 21.6441C75.8646 23.3434 76.4095 24.6119 78.08 25.2008C78.5732 25.3786 78.8755 25.5525 78.8198 26.1373C78.7363 26.9277 79.0028 28.0144 78.5812 28.3938C77.9487 28.9747 76.9345 28.4254 76.1947 28.0342C73.9951 26.8882 72.6388 25.1099 72.5314 22.5807C72.4598 20.8735 72.5314 19.1624 72.5314 17.4433L72.4956 17.4631Z" fill="white"/>
<path d="M86.7535 17.8583C86.7535 19.439 86.8291 21.0197 86.7535 22.6005C86.5864 25.4853 84.8244 27.7378 82.251 28.4294C81.6981 28.5756 80.66 29.0854 80.5685 28.2911C80.4572 27.3545 79.7014 25.9516 81.0538 25.343C82.9272 24.4973 83.4403 23.0944 83.4124 21.2331C83.3687 18.8067 83.4124 16.3763 83.4124 13.9499C83.4124 12.3218 82.9073 10.9347 81.1612 10.4407C80.5685 10.2708 80.4134 9.98228 80.4731 9.4804C80.5725 8.69004 80.0475 7.54797 80.7793 7.14093C81.4277 6.78526 82.4499 7.21602 83.2175 7.63886C85.4807 8.87578 86.7296 10.7608 86.7972 13.3493C86.833 14.8549 86.7972 16.3684 86.7972 17.878L86.7535 17.8583Z" fill="white"/>
<path d="M36.3475 17.6568C36.3475 14.6297 36.4271 11.6026 36.3117 8.56764C36.26 7.20426 36.8527 7.06199 37.9425 7.13312C38.9249 7.19635 39.8199 6.91973 39.788 8.57159C39.674 14.7549 39.674 20.9461 39.788 27.1452C39.8199 28.8128 38.917 28.5046 37.9385 28.5718C36.8487 28.6429 36.264 28.5006 36.3117 27.1373C36.4271 23.9758 36.3475 20.8143 36.3475 17.6568Z" fill="white"/>
<path d="M42.2697 17.6567C42.2697 14.6296 42.3492 11.6025 42.2339 8.56751C42.1822 7.22784 42.7191 7.0184 43.8249 7.14091C44.7238 7.2397 45.7738 6.76943 45.75 8.47267C45.6571 14.7166 45.6571 20.9631 45.75 27.2122C45.7778 28.9194 44.7198 28.4373 43.8249 28.5401C42.7032 28.6665 42.1861 28.4334 42.2339 27.1055C42.3293 23.9678 42.2697 20.8103 42.2697 17.6567Z" fill="white"/>
<path d="M57.7788 17.7556C57.7788 14.7325 57.8663 11.7014 57.7391 8.66641C57.6754 7.24375 58.2601 7.05406 59.4335 7.1331C60.4278 7.20028 61.2989 6.93156 61.2711 8.57157C61.1544 14.7522 61.1544 20.9329 61.2711 27.1135C61.3029 28.7614 60.4159 28.4769 59.4295 28.548C58.2363 28.635 57.6794 28.4216 57.7391 27.0068C57.8504 23.9402 57.7788 20.8459 57.7788 17.7556Z" fill="white"/>
<path d="M89.2039 17.7238C89.2039 14.6375 89.2994 11.5432 89.1642 8.45684C89.0926 6.90772 89.9915 7.15668 90.8864 7.16854C91.7813 7.18039 92.7041 6.84448 92.6842 8.42126C92.6047 14.7284 92.6047 21.0395 92.6842 27.3545C92.7041 28.9945 91.6382 28.4965 90.8307 28.54C90.0233 28.5835 89.1284 28.868 89.1761 27.3979C89.2596 24.1811 89.2039 20.9485 89.2039 17.7238Z" fill="white"/>
<path d="M169.549 17.6567C169.549 14.5664 169.624 11.4721 169.513 8.38572C169.465 6.99863 170.233 7.07372 171.104 7.20018C171.876 7.29107 173.029 6.639 173.017 8.31457C172.964 14.6875 172.964 21.0645 173.017 27.4454C173.017 29.1249 171.864 28.4531 171.096 28.5519C170.213 28.6665 169.469 28.7139 169.505 27.3387C169.605 24.1021 169.549 20.8774 169.549 17.6567Z" fill="white"/>
<path d="M64.9412 7.16464C67.2243 7.16464 69.2409 7.6191 70.1438 9.80841C71.1938 12.3494 71.2256 14.9458 69.567 17.3169C68.7477 18.5024 64.6231 19.5378 63.2906 18.9608C62.1212 18.455 62.865 17.3525 62.7457 16.5344C62.5906 15.4951 63.4417 15.669 64.0861 15.6374C66.747 15.5069 67.4272 14.9142 67.3874 12.8711C67.3595 11.2666 66.5442 10.3854 64.9611 10.3972C63.5412 10.3972 62.4832 10.5118 62.6463 8.42132C62.8093 6.3308 64.2372 7.53611 64.9412 7.16464Z" fill="white"/>
<path d="M20.8633 28.3979C22.2236 22.3832 23.556 16.5108 24.8885 10.6345L25.4414 10.5752C25.7715 12.9937 26.9727 15.266 26.5033 17.8149C26.0022 20.5219 25.334 23.2013 24.7493 25.8964C24.1367 28.7259 24.1447 28.7259 20.8633 28.3979Z" fill="white"/>
<path d="M144.77 10.6304C145.045 13.207 146.361 15.6057 145.705 18.3522C145.116 20.8379 144.603 23.3434 144.058 25.8607C143.434 28.6981 143.434 28.6981 140.156 28.4413L144.185 10.658L144.77 10.6304Z" fill="white"/>
<path d="M14.3801 3.68696C17.1246 4.70653 18.6838 8.77692 17.7252 12.1636C16.6911 15.8191 14.3841 18.8224 12.7096 22.1459C12.1806 23.1971 11.4885 24.1693 10.9396 25.2125C10.3191 26.3981 9.59524 26.2361 9.06624 25.2797C6.77919 21.154 3.86769 17.3247 2.41989 12.8038C1.48916 9.89133 1.93463 7.0223 4.11827 4.5445C6.42122 1.92839 9.36455 1.77822 12.4391 2.17341C12.8692 2.22603 13.2766 2.39398 13.6179 2.65923C13.9591 2.92448 14.2213 3.27702 14.3762 3.67905C13.6165 4.12166 12.9681 3.63164 12.3158 3.39058C9.66684 2.41447 7.3599 3.03094 5.36321 4.8804C3.36653 6.72985 2.53524 9.10886 3.2313 11.8554C3.85576 14.3095 5.13651 16.4553 6.41327 18.6091C7.34798 20.1898 8.21109 21.8219 9.16966 23.3947C9.70661 24.2681 10.2157 24.6593 10.7925 23.4856C12.3556 20.2965 14.5154 17.4117 15.8717 14.1356C17.1882 10.9741 17.407 7.74943 14.8495 4.91202C14.6745 4.76299 14.5399 4.57281 14.4579 4.35883C14.376 4.14484 14.3492 3.91386 14.3801 3.68696Z" fill="#EDC651"/>
<path d="M14.3796 3.68706C17.848 7.70607 18.2616 10.7608 15.7757 15.5425C14.2285 18.5222 12.5102 21.4149 10.8437 24.3274C10.4459 24.9993 10.0124 25.9516 9.25267 24.6001C7.32757 21.1502 5.2752 17.7635 3.53705 14.2226C1.91424 10.911 1.89833 7.54799 4.73029 4.73824C7.62589 1.84945 10.9391 1.92058 14.3876 3.69495L14.3796 3.68706Z" fill="#FEFCF0"/>
<path d="M15.6182 13.5112C15.5307 15.8823 13.701 17.4353 12.8936 19.4784C12.3527 20.8537 11.422 22.0866 10.6106 23.3512C10.352 23.7464 9.86279 24.4024 9.41731 23.62C7.58767 20.4348 5.83759 17.2022 4 13.8826C5.59099 13.693 7.1064 14.5821 7.8661 12.6773C8.12066 12.0411 11.9868 12.1043 12.289 12.7485C13.1243 14.4952 14.3494 13.9775 15.6222 13.5112H15.6182Z" fill="#FEFEFD"/>
<path d="M15.6214 13.5113C15.5776 10.9703 15.9913 8.37394 14.5156 5.60767C16.6953 7.10936 17.0731 11.7883 15.6214 13.5113Z" fill="#FEFEFD"/>
<path d="M66.9297 41.9053V35.0054H69.7139C70.1519 34.9921 70.5879 35.0687 70.9947 35.2306C71.3072 35.3605 71.5742 35.5791 71.7623 35.859C71.9368 36.1329 72.0266 36.4517 72.0208 36.7758C72.0254 37.0225 71.9694 37.2667 71.8578 37.4871C71.7514 37.686 71.5987 37.8568 71.4123 37.985C71.2158 38.1139 70.9975 38.2062 70.7679 38.2577V38.3249C71.0294 38.3352 71.284 38.4113 71.5078 38.5462C71.7444 38.6863 71.9404 38.8852 72.0765 39.1232C72.2252 39.3901 72.2994 39.6916 72.2913 39.9965C72.2976 40.3428 72.2022 40.6833 72.0169 40.9766C71.8244 41.2756 71.5478 41.5119 71.2214 41.6563C70.8076 41.8341 70.3594 41.9191 69.9088 41.9053H66.9297ZM68.3974 40.7197H69.5906C69.907 40.7456 70.2227 40.6634 70.4855 40.4866C70.5783 40.4115 70.6522 40.316 70.7012 40.2076C70.7502 40.0992 70.7731 39.9809 70.7679 39.8622C70.7712 39.6838 70.7229 39.5083 70.6287 39.3563C70.5328 39.2056 70.3945 39.0861 70.231 39.0125C70.0421 38.9243 69.8351 38.881 69.6264 38.8861H68.3974V40.7197ZM68.3974 37.9021H69.4832C69.6679 37.9057 69.8511 37.8693 70.0202 37.7954C70.1704 37.7315 70.2998 37.6276 70.3941 37.495C70.488 37.3564 70.5354 37.1918 70.5293 37.0248C70.5338 36.9111 70.5122 36.7979 70.466 36.6938C70.4198 36.5897 70.3503 36.4974 70.2628 36.4241C70.0493 36.2581 69.7815 36.1764 69.5111 36.1949H68.3974V37.9021ZM79.6178 38.4632C79.635 39.1296 79.4846 39.7897 79.1803 40.3838C78.9152 40.8886 78.511 41.3081 78.0149 41.5931C77.5095 41.8731 76.9389 42.0162 76.3603 42.008C75.7787 42.0154 75.2054 41.871 74.6977 41.5891C74.2018 41.3051 73.7986 40.8853 73.5363 40.3799C73.236 39.7861 73.0898 39.1273 73.1107 38.4632C73.0898 37.7978 73.236 37.1378 73.5363 36.5426C73.803 36.0465 74.2057 35.6354 74.6977 35.3571C75.2054 35.0752 75.7787 34.9308 76.3603 34.9382C76.9392 34.9312 77.5099 35.0757 78.0149 35.3571C78.5089 35.6341 78.9132 36.0454 79.1803 36.5426C79.4806 37.1351 79.6282 37.7923 79.6099 38.4553L79.6178 38.4632ZM78.1302 38.4632C78.1429 38.0417 78.0684 37.6221 77.9115 37.2303C77.7877 36.9213 77.5728 36.6568 77.295 36.4715C77.0194 36.2941 76.6965 36.2032 76.3682 36.2107C76.0388 36.2038 75.7148 36.2946 75.4375 36.4715C75.1607 36.6579 74.946 36.9221 74.821 37.2303C74.6674 37.6229 74.5944 38.0421 74.6062 38.4632C74.5944 38.8843 74.6674 39.3035 74.821 39.6962C74.947 40.0049 75.1614 40.27 75.4375 40.4589C75.7159 40.6329 76.0394 40.7221 76.3682 40.7158C76.6959 40.7228 77.0183 40.6334 77.295 40.4589C77.5721 40.2711 77.7867 40.0056 77.9115 39.6962C78.0668 39.3013 78.1385 38.8789 78.1223 38.4553L78.1302 38.4632ZM87.0875 38.4632C87.1059 39.1293 86.9569 39.7894 86.654 40.3838C86.3902 40.8895 85.9856 41.3093 85.4886 41.5931C84.9834 41.8736 84.4126 42.0167 83.8339 42.008C83.2536 42.0158 82.6814 41.8713 82.1753 41.5891C81.6774 41.3064 81.2726 40.8864 81.0099 40.3799C80.7116 39.7855 80.5654 39.1272 80.5843 38.4632C80.5654 37.798 80.7116 37.1384 81.0099 36.5426C81.277 36.0454 81.6813 35.6341 82.1753 35.3571C82.6814 35.0749 83.2536 34.9303 83.8339 34.9382C84.4129 34.9309 84.9837 35.0754 85.4886 35.3571C85.9834 35.6331 86.3879 36.0446 86.654 36.5426C86.9529 37.1354 87.0991 37.7926 87.0795 38.4553L87.0875 38.4632ZM85.5959 38.4632C85.6086 38.0417 85.5341 37.6221 85.3772 37.2303C85.2549 36.9216 85.0414 36.6571 84.7647 36.4715C84.4874 36.2946 84.1634 36.2038 83.8339 36.2107C83.5057 36.2032 83.1827 36.2941 82.9072 36.4715C82.6276 36.6535 82.41 36.9153 82.2827 37.2223C82.1258 37.6142 82.0513 38.0338 82.064 38.4553C82.0513 38.8768 82.1258 39.2965 82.2827 39.6883C82.4075 39.9977 82.6221 40.2632 82.8992 40.451C83.1759 40.6255 83.4983 40.7149 83.826 40.7079C84.1548 40.7142 84.4783 40.6249 84.7567 40.451C85.0327 40.2629 85.2459 39.9974 85.3692 39.6883C85.5262 39.2965 85.6006 38.8768 85.588 38.4553L85.5959 38.4632ZM88.1734 41.9132V35.0133H89.641V38.0562H89.7325L92.2304 35.0133H93.9765L91.4031 38.1036L94.0083 41.9132H92.2542L90.353 39.0758L89.6291 39.9531V41.929L88.1734 41.9132ZM95.5714 42.0001C95.4642 42.0013 95.3578 41.9809 95.2587 41.9401C95.1596 41.8994 95.0698 41.8391 94.9947 41.763C94.9181 41.6884 94.8575 41.5992 94.8165 41.5007C94.7754 41.4022 94.7549 41.2965 94.7561 41.19C94.756 41.0847 94.777 40.9805 94.818 40.8835C94.859 40.7865 94.9191 40.6985 94.9947 40.6249C95.069 40.5485 95.158 40.4878 95.2564 40.4464C95.3548 40.405 95.4606 40.3837 95.5675 40.3838C95.6731 40.3832 95.7778 40.4035 95.8755 40.4435C95.9731 40.4836 96.0618 40.5425 96.1362 40.617C96.2099 40.6899 96.2679 40.7768 96.3068 40.8726C96.3458 40.9683 96.3649 41.0709 96.363 41.1742C96.3603 41.3137 96.3205 41.4501 96.2476 41.5694C96.1722 41.6884 96.0701 41.7884 95.9493 41.8618C95.836 41.9383 95.7042 41.9834 95.5675 41.9922L95.5714 42.0001ZM103.725 37.4279H102.238C102.214 37.2504 102.158 37.0788 102.071 36.922C101.992 36.7709 101.883 36.6366 101.752 36.5268C101.617 36.4177 101.461 36.3346 101.295 36.2818C101.116 36.2249 100.93 36.1969 100.742 36.1988C100.41 36.1908 100.082 36.2832 99.8035 36.4636C99.5248 36.6542 99.3089 36.9223 99.183 37.2342C99.0263 37.6206 98.9519 38.035 98.9642 38.4514C98.951 38.8755 99.0254 39.2978 99.183 39.6922C99.3121 39.9993 99.5293 40.2618 99.8074 40.447C100.084 40.6222 100.406 40.7116 100.734 40.7039C100.919 40.7061 101.102 40.6808 101.279 40.6288C101.441 40.5812 101.594 40.5049 101.729 40.4036C101.86 40.3026 101.97 40.1779 102.055 40.036C102.146 39.8842 102.208 39.7166 102.238 39.5421H103.725C103.685 39.8625 103.586 40.1731 103.435 40.4589C103.282 40.7581 103.074 41.0262 102.822 41.2493C102.554 41.4861 102.244 41.6711 101.908 41.7946C101.526 41.9337 101.121 42.002 100.714 41.9962C100.133 42.0045 99.5591 41.86 99.0517 41.5773C98.5582 41.2928 98.1577 40.8729 97.8983 40.368C97.6045 39.7723 97.4612 39.1145 97.4806 38.4514C97.4617 37.7862 97.6079 37.1266 97.9062 36.5308C98.173 36.0346 98.5756 35.6236 99.0676 35.3452C99.5694 35.0629 100.138 34.9183 100.714 34.9263C101.094 34.9238 101.471 34.9812 101.832 35.0963C102.166 35.2032 102.478 35.3707 102.751 35.5902C103.02 35.8072 103.242 36.076 103.403 36.3806C103.571 36.7051 103.677 37.0574 103.717 37.4199L103.725 37.4279ZM111.155 38.4632C111.175 39.1289 111.027 39.789 110.726 40.3838C110.461 40.8886 110.056 41.3081 109.56 41.5931C109.055 41.8731 108.484 42.0162 107.906 42.008C107.324 42.016 106.75 41.8715 106.243 41.5891C105.744 41.3084 105.338 40.8897 105.074 40.3838C104.772 39.7904 104.624 39.1316 104.644 38.4672C104.624 37.8015 104.772 37.1414 105.074 36.5466C105.339 36.0496 105.742 35.6383 106.235 35.361C106.743 35.0787 107.316 34.9342 107.898 34.9421C108.477 34.9352 109.047 35.0796 109.552 35.361C110.046 35.6381 110.451 36.0493 110.718 36.5466C111.017 37.1378 111.165 37.7936 111.147 38.4553L111.155 38.4632ZM109.668 38.4632C109.68 38.0417 109.606 37.6221 109.449 37.2303C109.325 36.9213 109.11 36.6568 108.832 36.4715C108.557 36.2941 108.234 36.2032 107.906 36.2107C107.576 36.2038 107.252 36.2946 106.975 36.4715C106.698 36.6579 106.483 36.9221 106.358 37.2303C106.205 37.6229 106.132 38.0421 106.144 38.4632C106.132 38.8843 106.205 39.3035 106.358 39.6962C106.484 40.0049 106.699 40.27 106.975 40.4589C107.253 40.6329 107.577 40.7221 107.906 40.7158C108.233 40.7228 108.556 40.6334 108.832 40.4589C109.109 40.2711 109.324 40.0056 109.449 39.6962C109.604 39.3013 109.676 38.8789 109.66 38.4553L109.668 38.4632ZM112.241 35.0133H114.055L115.964 39.6488H116.047L117.957 35.0133H119.77V41.9132H118.346V37.4239H118.287L116.489 41.8776H115.522L113.725 37.4041H113.665V41.9132H112.241V35.0133Z" fill="#FDB300"/>
<path fill-rule="evenodd" clip-rule="evenodd" d="M14.3356 8.75027V13.4361H13.2238V12.712H6.66665V13.4361H5.55489V8.75027H5.17188V8.03001H6.10728L6.62859 6.43183C6.78241 5.96034 7.0388 5.53247 7.54068 5.53247H12.5432C13.0451 5.53247 13.3341 5.95192 13.4553 6.43107L13.8585 8.02925H14.7178V8.7495H14.3356V8.75027ZM8.2803 11.2662H11.5643V12.0293H8.2803V11.2662ZM5.92703 9.48889C6.76377 9.51491 7.27575 9.86011 7.40705 10.5804H5.92703V9.48889ZM13.8578 9.48889C13.021 9.51491 12.509 9.86011 12.3777 10.5804H13.8578V9.48889ZM6.50661 8.02925H13.3838L13.0894 6.68901C13.0086 6.32161 12.7763 6.00396 12.3941 6.00396H7.6378C7.25555 6.00396 7.05977 6.33003 6.94246 6.68901L6.50661 8.02925Z" fill="#F8C732"/>
</g>
<defs>
<clipPath id="clip0_64_2">
<rect width="173" height="42" fill="white"/>
</clipPath>
</defs>
</svg>
